<svg id="capa_11" fill="#f2efe5" viewBox="0 0 512 512" xmlns="http://www.w3.org/2000/svg"><g><path d="m506.371 282.787-117.668-67.297v-135.312c0-3.587-1.921-6.899-5.035-8.681l-122.703-70.177c-3.076-1.76-6.853-1.76-9.93 0l-122.702 70.178c-3.114 1.781-5.035 5.094-5.035 8.681v135.311l-117.668 67.297c-3.114 1.781-5.035 5.094-5.035 8.681v140.355c0 3.587 1.921 6.899 5.035 8.681l122.703 70.178c1.538.88 3.251 1.319 4.965 1.319 1.713 0 3.427-.44 4.965-1.319l117.737-67.339 117.738 67.338c1.538.88 3.251 1.319 4.965 1.319s3.427-.44 4.965-1.319l122.703-70.178c3.114-1.781 5.035-5.094 5.035-8.681v-140.355c0-3.587-1.921-6.899-5.035-8.68zm-250.371-261.267 112.703 64.459v129.511l-112.703 64.457-112.702-64.457v-129.511zm-122.703 468.961-112.703-64.459v-128.754l112.703-64.458 112.703 64.458v128.754zm358.109-64.459-112.703 64.459-112.703-64.459v-128.754l112.703-64.458 112.703 64.458z"/><path d="m373.738 263.297-78.703 45.013c-3.114 1.781-5.035 5.094-5.035 8.681v89.309c0 3.587 1.921 6.899 5.035 8.681l78.703 45.013c1.538.88 3.251 1.319 4.965 1.319 1.713 0 3.427-.439 4.965-1.319l78.703-45.013c3.114-1.781 5.035-5.094 5.035-8.681v-89.309c0-3.587-1.921-6.899-5.035-8.681l-78.703-45.013c-3.076-1.759-6.854-1.759-9.93 0zm73.668 59.494v77.707l-68.703 39.294-68.703-39.294v-77.707l68.703-39.294z"/></g></svg>